<svg xmlns="http://www.w3.org/2000/svg" width="20.77" height="13.047" viewBox="0 0 20.77 13.047">
  <g id="right-arrow_copy" data-name="right-arrow copy" transform="translate(-71.53 89.436) rotate(90)">
    <path id="Path" d="M14.47.2A.7.7,0,0,0,13.5.2a.642.642,0,0,0,0,.926l4.929,4.742H.681A.665.665,0,0,0,0,6.519a.672.672,0,0,0,.681.664H18.427L13.5,11.916a.653.653,0,0,0,0,.935.7.7,0,0,0,.972,0l6.1-5.864a.627.627,0,0,0,0-.926Z" transform="translate(-76.389 -92.3) rotate(90)" fill="#585858"/>
  </g>
</svg>
