<svg xmlns="http://www.w3.org/2000/svg" width="1439.5" height="545.521" viewBox="0 0 1439.5 545.521">
  <g id="_2b5645ff" data-name="#2b5645ff" transform="translate(0 -104.25)">
    <path id="Path_105464" data-name="Path 105464" d="M489.006,105.707c1.109-.489,2.218-.979,3.349-1.457,3.707,2.2,7.73,4.371,12.221,3.794,3.207,2.24,6.8,4.186,9.057,7.5-1.75,3.62-2.3,7.665-4.066,11.275,3.305.272,6.632,2.142,5.61,6.023.728.935,1.479,1.881,2.229,2.816-.435.554-1.316,1.653-1.75,2.207.011,1.25.022,2.512.033,3.773l3.631.261c-.3,2.533.315,5.317-.826,7.676-2.022,1.381-4.545,1.794-6.773,2.74-.881,1.261-1.261,3.294-3.044,3.566-3.283-.163-6.436-1.239-9.7-1.424a40.433,40.433,0,0,0-6.73,10.329,93.229,93.229,0,0,0-.054,11.025,52.674,52.674,0,0,0,15-5.567A51.748,51.748,0,0,0,513,172.289c2.805-1.392,5.469-4.295,8.894-3.381,3.4.576,5.4,3.523,7.23,6.132,2.153.3,4.305.652,6.447,1.109.348-.239,1.044-.718,1.4-.957l4.24.2c-.631-1.131-1.25-2.251-1.87-3.37a10.022,10.022,0,0,1,5.588-1.99,8.363,8.363,0,0,1,.022-7.187,24.2,24.2,0,0,0,8.828-4.795c4.61.555,8.763,3.066,13.482,2.925.522-3,1.968-5.621,5.143-6.306a40.357,40.357,0,0,0,10.427,4.806c4.295-1.479,7.11,3.055,10.84,4.36.87,1.1,1.729,2.2,2.609,3.305-.728,1.859-1.457,3.718-2.261,5.545-.076.794-.228,2.37-.3,3.164,11.481-1.25,23.115-.315,34.617-.087,7.687-.424,15.526-1.631,23.115.228a29.677,29.677,0,0,1,8.035,0c3.794-7.469,7.361-15.069,10.535-22.821.424.217,1.272.641,1.7.848.6-1.294,1.207-2.6,1.816-3.9-.859.7-2.555,2.088-3.4,2.783,3.664-6.991,5.741-15.047,11.394-20.821,3.718-4.153,8.883-6.458,13.7-9.035,7.611-3.784,14.906-8.861,23.549-9.85,5.012-.641,9.948.62,14.786,1.74-.652.37-1.294.728-1.935,1.087-1.674-.522-3.479-1.9-5.219-.9a133.6,133.6,0,0,1,16.026,7.034c-1.74-3.175-5.36-4.49-8.709-5.088.065-.391.2-1.174.25-1.566,5.251,2.348,10.22,5.273,15.363,7.861,4.371,2.327,8.981,4.5,12.471,8.122,5.936,5.686,8.111,13.906,11.71,21.049-1.1-.75-2.185-1.511-3.262-2.261,1.065,2.261,2.142,4.512,3.164,6.806.533-.892,1.087-1.783,1.653-2.675.7,5,3.61,9.2,5.512,13.775,1.25,2.805,2.338,5.795,4.414,8.133,1.087-.261,2.185-.555,3.273-.9,9.046.163,18.113-1.065,27.159-.109,7.176,1.2,14.4-1.533,21.538.37,1.87-.228,3.751-.424,5.643-.554.207-2.055.478-4.1.75-6.143,1.74-.772,3.479-1.522,5.24-2.261-.359-.794-1.076-2.392-1.446-3.186.642-.381,1.924-1.152,2.566-1.533.294-1.316.6-2.62.924-3.925,1.761-.826,3.512-1.663,5.262-2.533,2.174.522,4.36,1.087,6.556,1.631a14.931,14.931,0,0,1,2.936-3.512c2.892.935,5.7,2.229,8.763,2.566,2.077,1.239,4.458,2.261,5.817,4.392a59.4,59.4,0,0,1-1.718,6.806c3.131,1.544,3.338,5.186,4.153,8.154,6.882-.968,13.7.848,20.505.554,8.85-2.925,18,2.272,26.79-.848-1.109-8.133-6.654-14.449-10.177-21.571-2.066,1.087-4.121,2.174-6.176,3.24-.5-.109-1.49-.315-1.99-.424-6.708.739-14.591,1.218-19.461-4.382.468-.652,1.392-1.957,1.859-2.609a24.753,24.753,0,0,1,.815-3.327c1.8-2.4,5.24-1.022,7.806-1.261-.457-.391-1.359-1.174-1.8-1.566,2.022-3.936.533-7.8-1.033-11.546l2.783-1.435a16.277,16.277,0,0,0-.413-7.306c2.783-3.283,7.045-4.447,11.231-4.023a25.925,25.925,0,0,1,6.371-3.2c2.327-1.979,5.414-2.533,8.024-4.034,1.75-1.174,3.925-.794,5.925-.881,2.1,1.707,4.219,3.4,6.317,5.121,1.435.294,2.881.576,4.327.87,3.294-4.077,7.013-8.415,12.525-9.263,4.175-1.74,8.491.022,12.427,1.533.326.424.968,1.25,1.283,1.674A6.235,6.235,0,0,1,975,115.34a14.766,14.766,0,0,1,3.61,7.328,7.317,7.317,0,0,1,4.251,2.425c1.87.913,3.773,1.772,5.708,2.609.533,1.142,1.087,2.294,1.642,3.436-.652.837-1.283,1.674-1.914,2.512,1.283.283,2.588.576,3.9.87a53.177,53.177,0,0,1,9.263-1.555,12.79,12.79,0,0,0-6.143-.4c-1.1-1.794-2.457-3.62-2.5-5.806a30.667,30.667,0,0,1,1.881-5.469c2.327-.772,4.664-1.587,6.958-2.5,1.239-1.968,3.36-2.185,5.5-2.1.413-1.109.859-2.218,1.3-3.327,3.892,1.424,8.133,1.566,11.938,3.283,3.251,1.631,6.937,1.6,10.47,2.055-.185,1.381-.294,2.783-.457,4.175,1.207-4.5,3.664-8.513,5.132-12.927a8.383,8.383,0,0,1,5.675-1.62c2.675,1.881,5.295,4.1,8.828,3.675.554.718,1.12,1.435,1.707,2.153a29.578,29.578,0,0,1,8.339,2.9c.674-1.011,1.359-2.011,2.066-3.023,2.555,1.729,5,3.642,7.6,5.317a16.2,16.2,0,0,0,6.491,3.664c2.022,2.783,4.784,5.947,2.446,9.426,2.9-1.924,6.273-1.37,9.448-.511q1.924-1.4,3.9-2.762a30.873,30.873,0,0,1,2.838-2.751c1.522.207,3.055.489,4.577.837.881-1.62,1.076-4.066,3.088-4.773,2.088-.337,4.229-.25,6.349-.544,2.011-1.392,3.533-3.36,5.306-5.034,2.218.8,4.588,2.077,6.86.609,3.044,2.272,5.969,4.719,9.068,6.915.283.663.837,1.979,1.109,2.631l2.533-.783c1.533.381,3.088.761,4.653,1.131.185-.718.533-2.153.707-2.881a45.976,45.976,0,0,0,9.394-4.9c.761-1.294,1.185-2.957,2.435-3.892,4.327-2.381,9.481-2.512,13.83-4.882,5.8-.565,10.764,2.479,16.167,3.968a24.621,24.621,0,0,1,2.642,4.327c.891-.435,1.8-.859,2.729-1.294,2.544,1.75,3.338,4.621,3.62,7.556,1.24.826,2.479,1.653,3.751,2.49.739,1.924,1.576,3.805,2.457,5.686.185-.8.544-2.4.729-3.207.207-3.62,4.012-4.132,6.687-5.306,2.522,2.153,5.295,4.327,8.861,3.914.815.924,1.653,1.859,2.49,2.783,1.827.283,3.675.554,5.545.837.565.609,1.142,1.218,1.74,1.837,1.968-4.24,6.393-1.674,8.415,1.022a31.481,31.481,0,0,1,5.741,4.153c.7.087,2.1.25,2.794.337.685,1.272,1.392,2.533,2.109,3.805,1.946-2.142,4.381-3.5,7-1.533.174-1.468.033-3.044.826-4.36,4.653,1.022,9.589,1.207,13.884,3.534,3.294,1.783,7.2,1.076,10.742,2.087-.25,1.011-.729,3.023-.979,4.023l1.152.163a11.88,11.88,0,0,1,2.577-7.013c.761-2.316.9-5,2.446-6.969,1.761-1.174,3.936-1.424,5.947-2.077,2.055,1.6,3.958,3.751,6.719,4.066,2.142.163,3.838,1.435,5.589,2.566,2.936.989,6.012,1.772,8.491,3.773.217-.772.652-2.316.87-3.1,3.033-.1,5.273,1.761,7.1,3.99,1.37-.565,2.74-1.131,4.142-1.685l2.207,1.729c3.588-.75,7.176-1.685,10.264-3.762a26.446,26.446,0,0,0,8.633-4.251c2.512.25,6.045,1.022,6.469,4.023,1.033,3.784,3.273,7.1,3.969,10.992.076-1.566.141-3.142.25-4.708,2.99-.348,6.219-.054,8.948-1.587,3.958-2.327,8.731-1.783,12.949-3.36.337,1.2.685,2.4,1.055,3.6,1.316-.228,2.642-.457,4-.674.337.663,1.011,1.979,1.337,2.631,2.348.663,4.729,1.239,7.034,2.1,2.566,3.175,2.327,7.339.555,10.829-2.164.13-4.643-.609-6.273,1.229a25.21,25.21,0,0,1,8.415,1.435c.63-.772,1.272-1.544,1.935-2.3,3.533.315,6.339-1.794,8.872-3.958,1.935.718,4.045,1.185,5.8,2.381,1.326,4.469,3.305,8.687,4.675,13.145-.087-1.642-.163-3.283-.217-4.925,3.153-.261,6.578.152,9.426-1.577a16.787,16.787,0,0,1,9.47-2.077q1.68-.669,3.425-1.337c.359,1.2.728,2.381,1.12,3.577,3.012-1.044,5.208,1.272,7.4,2.957V649.771H0V176.78A8.068,8.068,0,0,0,5.121,171.6H7.687q1.892-1.941,3.784-3.86c.565-.13,1.707-.381,2.272-.511,1.74-1.587,3.327-4.534,6.121-3.5.348.587,1.055,1.75,1.4,2.327a21.6,21.6,0,0,1,8.263-3.066l1.957-2.185c3.534.467,6.2-1.914,8.731-3.979a37.871,37.871,0,0,1,5.175,1.8c1.566,1.935,1.74,4.61,2.479,6.937l1.74,2c.315,1.576.663,3.153,1.065,4.719l-.217-4.74c3.392-.522,7.024-.174,10.155-1.794a21.131,21.131,0,0,1,9-2.3c1.185-.424,2.37-.837,3.555-1.261.337,1.316.663,2.631.989,3.947,3.653-1.152,6.165,2.3,9.492,3.12,3.164.391,3.914,3.642,5.164,6.045,2.261.435,4.523.859,6.8,1.229,3.262-1.25,6.741-.826,10.122-.37,2.229-1.468,4.7-2.816,7.426-1.8a30.42,30.42,0,0,1,8.567-1.2c-.359-.294-1.065-.892-1.413-1.2-1.74.022-3.479.044-5.208.054-1.685-3.534-2.153-8.5,1.435-10.948,4.066-.794,7.089-4.632,11.362-4.218.37-1.131.75-2.251,1.12-3.381,4.186,1.316,8.709,1.37,12.688,3.381,2.914,1.5,6.252,1.229,9.415,1.468q.2,2.479.457,4.958c.228-1.707.391-3.414.576-5.121.468-.359,1.392-1.1,1.859-1.457a56.988,56.988,0,0,1,1.968-6.7c1.707-1.207,3.838-1.587,5.773-2.3,2.925,3.61,7.622,3.805,11.416,5.915a42.879,42.879,0,0,1,6.61-4.621,11.271,11.271,0,0,1,6.089-3.566l1.424,2.544a29.936,29.936,0,0,1,7.741-2.827c1.174-1.022,2.164-2.479,3.849-2.631,3.762-.424,6.491-3.153,9.687-4.86,1.729-1.392,3.175-3.664,5.665-3.544.761.761,1.49,1.544,2.2,2.359a24.016,24.016,0,0,1,7.9-2.849c.631-.707,1.272-1.413,1.924-2.131,3.6.272,6.415-1.859,8.883-4.2,1.881.707,3.979,1.055,5.621,2.283a40.651,40.651,0,0,1,1.957,6.991c1.229-3.675,2.751-7.491,6.436-9.35.435-1.729.413-3.686,1.522-5.164,1.12-1.718,3.164-.848,4.773-.685.7-1.435,1.4-2.87,2.109-4.295,2.653-.3,5.4-.652,7.632-2.272,2.544-1.9,5.871-1.348,8.839-1.7a20.971,20.971,0,0,0,6.513,2.7c3.729,1.055,8.937,1.218,9.763,5.947,3.2,3.175,8.687,3.512,10.731,7.785a54.316,54.316,0,0,1,6.643-.652c.261-.457.783-1.359,1.055-1.816,3.077-2.381,6.012-4.947,9.285-7.078,2.185,1.413,4.479.076,6.73-.283a36.966,36.966,0,0,1,5.686,4.99,34.664,34.664,0,0,1,6.186.489c1.8.761,2.12,2.9,2.859,4.479,1.642-.228,3.338-1.4,5-.772a35.556,35.556,0,0,1,2.164,3.077c.609.13,1.816.381,2.425.5.424.424,1.272,1.261,1.7,1.674a16.761,16.761,0,0,1,9.916.391c1.707-.609,3.414-1.207,5.143-1.794,3.707-2.707,7.23-5.762,11.438-7.719.576.924,1.163,1.859,1.761,2.783,3.4-1.924,7.687-2.153,10.4-5.2,3.468.087,6.306-1.707,8.633-4.1,2.044.848,4.1,1.718,6.078,2.729.794,4.436,2.968,8.415,4.251,12.7-.076-1.087-.239-3.262-.326-4.349,5.588-.2,10.742-2.229,15.95-4.034a29.183,29.183,0,0,0,6.828-1.185c.261,1.055.533,2.12.815,3.186a5.242,5.242,0,0,1,5.741,2.174c2.414.924,4.849,1.772,7.3,2.6,1.065,3.349,2.12,7.111-.011,10.307a57.03,57.03,0,0,1-5.773.294c-.12.359-.359,1.055-.478,1.4,4.2.239,8.393.533,12.579.946a14.6,14.6,0,0,1,2.957,3c-1.011.718-2.033,1.413-3.055,2.109,2.457-.718,4.523.1,4.5,2.859,4.751-.881,7.676,4.2,12.362,4.469.739,1.7,1.49,3.392,2.272,5.077l-1.729,5.251c-1.12.37-2.24.739-3.349,1.109q2.479.913,4.99,1.827c3.316-1.446,7.687.37,6.937,4.534q4.142-.114,8.306-.207c.2-6.382-.533-12.884-3.175-18.755a68.385,68.385,0,0,0-6.241-4.012l-1.3,2.044a34.321,34.321,0,0,1-14.362-1.87c-1.924-.772-4.751-1.413-4.382-4.077.652-.457,1.968-1.348,2.631-1.8q1.468-2.984,2.87-6.023c-1.576-.326-3.142-.652-4.708-.957q-.93-2.707-1.8-5.436c.446-.533,1.348-1.6,1.794-2.131-.065-.892-.174-2.685-.239-3.588a29.4,29.4,0,0,1,10.046-2.751,18.5,18.5,0,0,1-3.327-6.589c1.2-1.207,2.936-1.294,4.512-1.663-.424-1.816-1.468-4.164.326-5.621,2.566-1.74,5.393-3.055,7.948-4.827,3.925.718,7.719,2,11.612,2.9.522-1.479,1.065-2.957,1.6-4.436m229.961,8.426c.152.348.446,1.044.6,1.392l.935-.446-.022-1.022c-.38.022-1.131.054-1.511.076m3.588.685c-.609,1.685,1.99,2.229,2.37.587.576-1.631-1.968-2.164-2.37-.587m-20.549,6,.109.631c3.816-.652,7.067-4.045,11.1-4.773,1.468-.663,3.718-.2,4.566-1.827l-.38-.457a34.229,34.229,0,0,0-15.4,6.426m40.01.217c3.055,3.751,8.187,4.566,11.7,7.763-6.469.62-12.971.065-19.429.674,6.687,1.065,13.493-.043,20.223.315,2,.054,3.175,2.468,5.24,2.24.011-.3.033-.9.044-1.207a63.227,63.227,0,0,0-17.776-9.785m-46.7,2.859a96.962,96.962,0,0,0-11.97,7.23c.544.511,1.087,1.033,1.653,1.544,3.914-5.24,11.144-6.273,15.6-10.524-1.99-.424-3.642.913-5.284,1.75m371.345,8.7c1.337-.141,2.7-.272,4.066-.4-.141-1.914-.239-3.827-.337-5.73-2.664.892-2.827,3.892-3.729,6.132M911.43,129.267h0m49.513,4.653c.761.815,1.011,2.425,2.37,2.468,3.979.457,8.459-1.239,12.09,1.207a44.119,44.119,0,0,1-.109,5.991c-2.479.185-3.457,2.675-5.654,3.338a5.772,5.772,0,0,1,4.208,2.631c-1.5,2.772-4.621,2.588-7.328,2.588.315,2.174-1.316,2.685-3.12,2.914a11.51,11.51,0,0,0,6.839,2.229c.75-2.968,3.947-3.457,6.284-4.621,2.294-.913,4.36-2.609,6.991-2.283.239-.631.707-1.9.946-2.533,1.25-1.022,2.772.75,4.088.979,1.37-.37,2.751-.761,4.153-1.163-2.555-2.1-5.338-4.36-5.4-7.969-.413-.478-1.239-1.424-1.653-1.892l.348-3.305c-1.435-.544-2.87-1.076-4.284-1.6-1.359,1.424-2.892,4.088-5.2,2.566-2.533-1.316-5.306-2.229-7.839-.326-1.881-2.816-5-2.174-7.73-1.218m-277.365-1.914c-6.263,4.1-8.361,11.949-10.938,18.592,3.055-2.359,4.1-6.252,5.991-9.459l1.424.8c.174-3.631,2.4-6.6,3.523-9.937m77.487,1.337c-.294,1.8,1.12,3.055,1.968,4.458,2.936,4.11,4.316,9.252,8.089,12.775-2.066-6.523-4.795-13.308-9.8-18.146l-.261.913m-392.329,3.914c-1.283,1.065.3,3.61,1.783,2.609,1.163-1.055-.359-3.512-1.783-2.609m568.94,14.667c.217-1.5.391-3,.522-4.512-2.729.315-2.044,3.207-.522,4.512m-12.275.261c.315,3.849,3.881,5.925,5.708,9.013,1.87,2.87,2.381,6.339,3.4,9.546,4.121-5.164,2.718-13.83-2.74-17.635a6.712,6.712,0,0,1-6.371-.924M942.59,155.1c2.653,1.642,5.338-1.609,7.926-2.185-2.685-1.446-5.284,1.75-7.926,2.185m-.815,3.773c1.152,5.534,1.163,11.383-1.152,16.635a138.8,138.8,0,0,0,23.767.054,13.874,13.874,0,0,0-2.783-4.458,8.84,8.84,0,0,1,4.175-3.631,7.609,7.609,0,0,0-3.381-5.24c-2.664.13-5.556.1-7.1-2.435-2.392-.533-4.6-1.859-7.024-2.087-1.99,1.3-4.142,2.131-6.5,1.163m432.829,1.914Z" transform="translate(0 0)" fill="#2b5645"/>
    <path id="Path_105465" data-name="Path 105465" d="M711.38,149.38Z" transform="translate(62.058 3.937)" fill="#2b5645"/>
  </g>
</svg>
