<svg xmlns="http://www.w3.org/2000/svg" width="16.816" height="17.268" viewBox="0 0 16.816 17.268">
  <g id="Group_6581" data-name="Group 6581" transform="translate(0)">
    <path id="Path_100798" data-name="Path 100798" d="M730.911,88.6a1.627,1.627,0,0,0-3.255,0v4.836h3.255Z" transform="translate(-726.841 -86.971)" fill="#00951e"/>
    <path id="Path_100799" data-name="Path 100799" d="M725.951,104.943h.815v5.921a1.627,1.627,0,0,0,3.255,0v-5.921h.814v-2.17h-4.883Z" transform="translate(-725.951 -95.224)" fill="#00951e"/>
    <path id="Path_100800" data-name="Path 100800" d="M743.4,88.6a1.627,1.627,0,0,0-3.255,0v8.814H743.4Z" transform="translate(-733.364 -86.971)" fill="#00951e"/>
    <path id="Path_100801" data-name="Path 100801" d="M738.443,113.27h.814v1.944a1.627,1.627,0,0,0,3.255,0V113.27h.814V111.1h-4.882Z" transform="translate(-732.475 -99.574)" fill="#00951e"/>
    <path id="Path_100802" data-name="Path 100802" d="M755.891,88.6a1.627,1.627,0,0,0-3.254,0v1.853h3.254Z" transform="translate(-739.888 -86.971)" fill="#00951e"/>
    <path id="Path_100803" data-name="Path 100803" d="M755.815,96.526h-4.881V98.7h.814v8.9a1.627,1.627,0,1,0,3.254,0V98.7h.814Z" transform="translate(-738.999 -91.961)" fill="#00951e"/>
  </g>
</svg>
