<svg id="Iconly_Light-outline_Heart" data-name="Iconly/Light-outline/Heart" xmlns="http://www.w3.org/2000/svg" width="35.088" height="35.088" viewBox="0 0 35.088 35.088">
  <g id="Heart" transform="translate(2.922 3.655)">
    <path id="Heart-2" data-name="Heart" d="M14.081,27.627l-.358-.216a50.808,50.808,0,0,1-8.779-6.832,18.04,18.04,0,0,1-4.35-6.94A11.339,11.339,0,0,1,.888,5.6,9.208,9.208,0,0,1,6.556.461a9.6,9.6,0,0,1,7.675.791l.386.232.392-.233A9.609,9.609,0,0,1,22.292.345l.389.116a9.221,9.221,0,0,1,5.674,5.146,11.375,11.375,0,0,1,.293,8.057A18.265,18.265,0,0,1,24.3,20.588a50.84,50.84,0,0,1-8.766,6.82l-.336.209a1.074,1.074,0,0,1-1.114.009ZM7.211,2.495a7.115,7.115,0,0,0-4.4,4.042,9.178,9.178,0,0,0-.191,6.426,16.1,16.1,0,0,0,3.821,6.093,48.62,48.62,0,0,0,8.39,6.528l-.208-.132.683-.43A48.585,48.585,0,0,0,22.025,19.8l.772-.734a16.032,16.032,0,0,0,3.822-6.079,9.189,9.189,0,0,0-.189-6.443,7.125,7.125,0,0,0-4.4-4.047A7.468,7.468,0,0,0,15.26,3.636,1.071,1.071,0,0,1,14,3.649l-.288-.207a7.455,7.455,0,0,0-6.5-.947Zm14.411,7.887A2.9,2.9,0,0,0,19.63,7.859a1.068,1.068,0,1,1,.65-2.036A5.033,5.033,0,0,1,23.754,10.2a1.07,1.07,0,0,1-.976,1.154c-.031,0-.061,0-.092,0A1.069,1.069,0,0,1,21.622,10.382Z" transform="translate(0)" fill="#fff"/>
  </g>
</svg>
