<svg id="Group_6477" data-name="Group 6477" xmlns="http://www.w3.org/2000/svg" width="31.925" height="31.925" viewBox="0 0 31.925 31.925">
  <g id="Group_627" data-name="Group 627" transform="translate(0 0)">
    <path id="Path_98579" data-name="Path 98579" d="M110.08,356.627c4.263,0,4.767.016,6.45.093a8.816,8.816,0,0,1,2.964.549,5.292,5.292,0,0,1,3.03,3.03,8.831,8.831,0,0,1,.55,2.964c.076,1.683.092,2.188.092,6.45s-.016,4.767-.092,6.45a8.83,8.83,0,0,1-.55,2.964,5.282,5.282,0,0,1-3.03,3.03,8.839,8.839,0,0,1-2.964.55c-1.683.076-2.188.093-6.45.093s-4.767-.017-6.45-.093a8.832,8.832,0,0,1-2.964-.55,5.282,5.282,0,0,1-3.03-3.03,8.829,8.829,0,0,1-.55-2.964c-.076-1.683-.092-2.188-.092-6.45s.016-4.767.092-6.45a8.83,8.83,0,0,1,.55-2.964,5.292,5.292,0,0,1,3.03-3.03,8.809,8.809,0,0,1,2.964-.549c1.683-.077,2.188-.093,6.45-.093m0-2.876c-4.335,0-4.879.018-6.582.1a11.689,11.689,0,0,0-3.875.743,8.153,8.153,0,0,0-4.668,4.668,11.7,11.7,0,0,0-.743,3.875c-.077,1.7-.1,2.247-.1,6.582s.018,4.879.1,6.582a11.689,11.689,0,0,0,.743,3.875,8.159,8.159,0,0,0,4.668,4.669,11.723,11.723,0,0,0,3.875.742c1.7.077,2.247.1,6.582.1s4.879-.018,6.582-.1a11.723,11.723,0,0,0,3.875-.742,8.166,8.166,0,0,0,4.669-4.669,11.723,11.723,0,0,0,.742-3.875c.077-1.7.1-2.247.1-6.582s-.018-4.879-.1-6.582a11.73,11.73,0,0,0-.742-3.875,8.16,8.16,0,0,0-4.669-4.668,11.689,11.689,0,0,0-3.875-.743c-1.7-.077-2.247-.1-6.582-.1" transform="translate(-94.117 -353.751)" fill="#fff"/>
    <path id="Path_98580" data-name="Path 98580" d="M108.639,360.076a8.2,8.2,0,1,0,8.2,8.2,8.2,8.2,0,0,0-8.2-8.2m0,13.518a5.321,5.321,0,1,1,5.321-5.321,5.32,5.32,0,0,1-5.321,5.321" transform="translate(-92.677 -352.311)" fill="#fff"/>
    <path id="Path_98581" data-name="Path 98581" d="M116.331,360.168a1.916,1.916,0,1,1-1.915-1.916,1.916,1.916,0,0,1,1.915,1.916" transform="translate(-89.931 -352.726)" fill="#fff"/>
  </g>
</svg>
