<svg id="Group_1811" data-name="Group 1811" xmlns="http://www.w3.org/2000/svg" width="56.078" height="56.079" viewBox="0 0 56.078 56.079">
  <path id="Path_100744" data-name="Path 100744" d="M256.873,88.682a8.917,8.917,0,0,0-8.909,8.907v1.469a1.564,1.564,0,0,0,1.567,1.566h14.684a1.563,1.563,0,0,0,1.566-1.566V97.589A8.917,8.917,0,0,0,256.873,88.682Z" transform="translate(-228.834 -61.833)" fill="#a2a2a2"/>
  <path id="Path_100745" data-name="Path 100745" d="M256.239,87.632a4.5,4.5,0,1,0-4.5-4.5A4.508,4.508,0,0,0,256.239,87.632Z" transform="translate(-228.199 -63.525)" fill="#a2a2a2"/>
  <path id="Path_100746" data-name="Path 100746" d="M259.63,65.7h0a28.04,28.04,0,0,0-28.04,28.04h0a28.039,28.039,0,0,0,28.04,28.04h0a28.039,28.039,0,0,0,28.039-28.04h0A28.039,28.039,0,0,0,259.63,65.7Zm11.649,37.225a4.306,4.306,0,0,1-4.308,4.308H252.288a4.305,4.305,0,0,1-4.309-4.308v-1.469A11.666,11.666,0,0,1,254.92,90.8a7.245,7.245,0,1,1,9.419,0,11.667,11.667,0,0,1,6.94,10.654Z" transform="translate(-231.59 -65.701)" fill="#a2a2a2"/>
</svg>
